<svg width="42" height="42" viewBox="0 0 42 42" fill="none" xmlns="http://www.w3.org/2000/svg">
<mask id="mask0_11_613" style="mask-type:alpha" maskUnits="userSpaceOnUse" x="0" y="0" width="42" height="42">
<rect width="42" height="42" fill="#D9D9D9"/>
</mask>
<g mask="url(#mask0_11_613)">
<path d="M20.25 33.25C19.6977 33.25 19.25 32.8023 19.25 32.25V23.75C19.25 23.1977 18.8023 22.75 18.25 22.75H9.75C9.19772 22.75 8.75 22.3023 8.75 21.75V20.25C8.75 19.6977 9.19772 19.25 9.75 19.25H18.25C18.8023 19.25 19.25 18.8023 19.25 18.25V9.75C19.25 9.19772 19.6977 8.75 20.25 8.75H21.75C22.3023 8.75 22.75 9.19772 22.75 9.75V18.25C22.75 18.8023 23.1977 19.25 23.75 19.25H32.25C32.8023 19.25 33.25 19.6977 33.25 20.25V21.75C33.25 22.3023 32.8023 22.75 32.25 22.75H23.75C23.1977 22.75 22.75 23.1977 22.75 23.75V32.25C22.75 32.8023 22.3023 33.25 21.75 33.25H20.25Z" fill="white"/>
</g>
</svg>
