<svg width="25" height="24" viewBox="0 0 25 24" fill="none" xmlns="http://www.w3.org/2000/svg">
<mask id="mask0_11_628" style="mask-type:alpha" maskUnits="userSpaceOnUse" x="0" y="0" width="25" height="24">
<rect x="0.333374" width="24" height="24" fill="#D9D9D9"/>
</mask>
<g mask="url(#mask0_11_628)">
<path d="M10.3334 14H14.3334V12H10.3334V14ZM10.3334 11H18.3334V9H10.3334V11ZM10.3334 8H18.3334V6H10.3334V8ZM8.33337 18C7.78337 18 7.31254 17.8042 6.92087 17.4125C6.52921 17.0208 6.33337 16.55 6.33337 16V4C6.33337 3.45 6.52921 2.97917 6.92087 2.5875C7.31254 2.19583 7.78337 2 8.33337 2H20.3334C20.8834 2 21.3542 2.19583 21.7459 2.5875C22.1375 2.97917 22.3334 3.45 22.3334 4V16C22.3334 16.55 22.1375 17.0208 21.7459 17.4125C21.3542 17.8042 20.8834 18 20.3334 18H8.33337ZM8.33337 16H20.3334V4H8.33337V16ZM4.33337 22C3.78337 22 3.31254 21.8042 2.92087 21.4125C2.52921 21.0208 2.33337 20.55 2.33337 20V6H4.33337V20H18.3334V22H4.33337Z" fill="#8188A4"/>
</g>
</svg>
